<?xml version="1.0" encoding="utf-8"?>
<!-- Generator: Adobe Illustrator 25.0.0, SVG Export Plug-In . SVG Version: 6.00 Build 0)  -->
<svg version="1.1" id="Layer_1" xmlns="http://www.w3.org/2000/svg" xmlns:xlink="http://www.w3.org/1999/xlink" x="0px" y="0px"
	 viewBox="0 0 300 300" style="enable-background:new 0 0 300 300;" xml:space="preserve">
<style type="text/css">
	.st0{fill:#0738AD;}
	.st1{fill:#FEFEFE;}
	.st2{fill:#434597;}
</style>
<image style="display:none;overflow:visible;enable-background:new    ;" width="797" height="324" xlink:href="../Logo.png"  transform="matrix(0.3394 0 0 0.3394 17.9693 112.1431)">
</image>
<g>
	<path class="st0" d="M112.1,141.9c3.1-1,4.1-4.8,1.9-7.3c-0.8-0.9-1.6-1.9-2.8-2.3c-0.6-0.3-1.2-0.3-1.7,0
		c-0.6,0.6-1.2,1.1-2.4,1.4c1-1.6,2.5-2.5,2.2-4.4c0.1-0.4,0.2-0.8,0.3-1.2c1,3.3,3.2,4.4,5.7,2.9c1.5-0.8,2.4-2.9,2-4.6
		c-0.6-2.8-1.6-2-2.9-1.8l-1.5,0.7c1-1.1,2.2-0.8,2.9-4.6c0.3,1.5-0.2,2.4,2.7,3.8c1.2,0,0.7,0,1.9,0c1.4,0.2,2.5-1.1,4.3-0.9
		c-1.6,1.3-3,2.1-4.1,3.3c-3.7,4.2-4.6,9.1-3.4,14.3c0.8,3.1,4.8,6,8.9,3.2c1.2-0.8,2.2-1.5,2.4-3c0.5-0.5,0.2-1.1,0.2-1.6
		c-1.2-3-3.9-4.6-6.3-6.4c-0.6-0.4-1-1.1-1.8-1.6c3.4,1.7,6.7,3.3,8.3-2c0.3-0.7,0.4-1.4,0-2.2c-1.1-4-3.9-6.3-7.5-7.9
		c-0.3-0.6-1.1,0-1.4-0.6c1.5,0,2.6-0.7,3.8-1.8c0.1,1.6-0.1,3,1.6,3.4c0.7,0.1,1.5,0,1.7-0.9c0.3-1,1-2.3-1-2.7
		c1.8-0.1,3.3-0.2,4.6-1.3c0.1,0.1,0.1,0.1,0.3,0.2c-0.5,1.7-0.3,3.1,1.4,4.1c0.8,0.5,1.4,0.3,1.8-0.4c0.8-1.3,0.8-2.8,0-4.1
		c-0.4-0.7-1.3-1.4,0.4-1.6c0.7-0.1,0.3-0.8,0.4-1.3c0.6,0,1.1,0,1.7,0c0,0.6,0.3,1.2-0.3,1.7c-0.4,0.1-1-0.3-1.2,0.3
		c-0.1,0.2,0.3,0.2,0.5,0.2c0.3,0,0.7,0,1,0c0.4,0.1,0.8-0.1,1.1,0.3c-3.2,2.6-3.8,6.8-1.3,10.1c1.2,1.6,3,1.5,3.9-0.4
		c1.2-2.4,0.7-4.6-0.6-6.8c-0.1-0.2-0.3-0.5-0.4-0.7c0,0,0-0.1,0-0.2c0.7-0.3,1.5-0.7,2.3-1c0.2,0.1,0.2,0.1,0.4,0.2
		c0.1,1.4-1.1,3,0.6,4.3c0.5,0.4,1.1,0.3,1.6,0c1.6-0.7,2.6-2.1,3.3-3.7c0.1,0.1,0.2,0.1,0.3,0.2c-0.2,1.4,0.4,2.2,2,2.5
		c-6.5,0.9-8.8,5.3-9.8,10.8c-0.4,1-0.2,2,0,3c0.5,2.4,1.5,4.5,3.4,6.1c1.6,1.4,3.9,1.6,5.3,0.5c1.4-1.1,1.5-3.3,0.5-5.2
		c-1-1.8-2.6-2.6-4.5-3.2c-0.5-0.2-1.1-0.3-1.6-0.5c0.2-0.1,0.4-0.2,0.7-0.3c3.6,0.1,4.9-0.8,5.8-3.9c0.3-0.5,0.3-1,0.2-1.5
		c0.2-0.9-0.1-1.7-0.5-2.5c-0.2-0.3-0.2-0.8,0.1-1.1c0.4-0.3,1-0.3,1.4,0c0.5,0.3,0.1,0.7,0,1c-0.3,0.6-0.4,1.2,0,1.8
		c0.1,0.2,0.1,0.4,0.2,0.6c0.2-1.2,0.9-1.8,2.1-1.7c0.7,0.1,0.9,0.7,0.9,1.4c-0.1,1.7-1.6,0.8-2.3,1.3c1.5,1.5,2.9,1,5.5-2.1
		c0.5,0.8-0.4,1.3-0.5,1.9c-0.1,0.8,0.6,1.1,1.4,1.8c-1.3,0-2.2,0-3.2,0c-3.9,0-5.9,3.1-4.5,6.7c1.1,2.7,2.5,3.1,4.7,1.2
		c1.7-1.5,2.5-3.4,2.1-5.6c0.1-0.2,0.2-0.3,0.3-0.5c0.7,2.2,2.5,2.8,4.5,3.2c-1.7,0.3-3.7-0.5-4.8,1.4c-0.5,0.5-0.3,1.1,0,1.6
		c0.1,0.4,0,1,0.7,0.8l0,0c0.1,1.8,1.4,2.2,2.8,2.3c1.4,0.1,2.2-1.1,3.4-1.6c-1.2,1.5-2.4,2.9-2.7,5c-0.5-0.7-1.1-1.3-1.6-2
		c-2.2-3.2-7.6-3-9.2,0.4c-1.1,2.2-0.5,5,2,7.5c0-1.4-0.7-3.3,1.8-3.1c1.2,0.1,1.3,0.9,1.4,1.7c0.2,1.7-1.3,1.5-2.3,1.9
		c0.3,0.7,0.9,0.7,1.5,0.9c0.6,0.3,1.2,0.3,1.7,0c1.4-0.6,2.6-1.7,3.8-2.9c0.3,1.2-0.7,1.9-0.7,2.9c1.5-0.8,1.9-0.5,1.9,1.1
		c-0.6,0.3-1.2,0.1-1.7,0c-0.7,1.6,1.1,2.5,1.2,4.1c-1.4-0.6-1.9-2-2.8-2.9c-1-1-2-1.3-3.3-1c-2.8,0.6-4.7,2.1-5.8,4.7
		c-0.4,0.7-0.4,1.4,0,2.1c1.1,2.9,2.9,3.9,6,1.9c-0.3,1.5-2.1,1.1-1.9,2.3l0,0c-1.4,0.3-0.5,2-1.6,2.5c-0.4-3.6-2.7-5-6.2-3.5
		c-2.6,1.1-5.1,2.4-7.6,3.8c-1.6,0.9-2.5,2.6-2.5,4.5c0,2.1,0,4.2,0,6.4h5.6c0.4,1.8,0.1,3.4,0.2,5.1h-5.8c0.1,4.4-0.4,8.7,0.4,12.8
		c0.3,1.6,2.1,1.3,3.2,1l1.8-0.4l0.7,2.1c0.2,0.7,0.8,2.4,0.8,2.4s-0.3,0.2-0.7,0.5c-0.4,0.2-0.7,0.4-1.2,0.5
		c-0.9,0.2-1.8,0.5-2.8,0.5c-0.9,0-2,0.1-2.9,0c-3.8-0.3-5.6-2.2-5.8-6.2c0-4,0-8,0-11.9c0-0.3,0-1.2,0-1.2h-0.4c-1.2,0-2.3,0-3.6,0
		v-5.1c1.3,0,2.5,0,3.7,0c0.5-2.7,0.4-5.3,0.1-8c-1.2-1.6-2.7-3-4.3-4.1c-2.7-1.9-5.1-4.1-7.4-6.4c-1.6-1.6-5.3-1.3-7.2,0.4
		c-2,1.9-2.1,2-3.7,2.2c1.6-1.4,2.7-2.8,3.2-4.6c0-0.7-0.1-1.8-0.2-2.6c-0.3-0.8-0.5-1.5-0.8-2.3c0.8,0,0.9,0.5,1.2,1
		c1.9,3.5,1.9,3.5,5.7,2.8c4.2-0.8,6.2-5.6,3.5-8.6c-1.8-2-4.4-2.6-7-2.8c-2-0.1-4.1-0.3-5.5,1.9c0.8-2,0.9-3.9-0.1-5.9
		c1.5,0.9,1.8,3.3,4.1,2.9C110.9,142.1,111.5,142.1,112.1,141.9z M137.6,150.9c0.4,1.5,1.3,2.8,2,4.2c-2.8-1.9-5.8-2-9-1.5
		c0.7-0.6,1.3-0.9,2-1.2c1-0.4,2-0.9,2.7-1.8c1-1.5,0.9-2.9-0.1-4.3c-0.9-1.3-3.2-2.2-4.9-1.7c-4.1,1.1-6.5,4.1-8.4,7.5
		c-1.1,2-1.2,4.3,0,6.4c1.7,3,4.3,4.6,7.6,5.3c0.6,0.1,1.2,0.1,1.7,0.2c7.5,0.2,13.2-3,17.4-9.1c1.9-2.8,2-6.6,0.5-8.6
		c-2.5-3.4-6.1-5.2-9.7-7c-1.9-0.9-4-0.8-5.9-1.7c0-0.1,0-0.2,0.1-0.3c1.3-0.1,2.7,0.4,3.6-1c-2.4,0.2-2.5,0.1-2.1-2.6
		c1.4-0.2,2.7-0.2,2.9,1.8c0.4-5.8-5.6-15.9-10.1-17.2c-0.2,2-0.3,3.9,0.8,5.6c0.6,1,0.9,2.4,2.5,2.3c1.7-0.1,1.1-1.7,1.6-2.9
		c0.8,1.8,0.5,3.2-0.4,4.6c-1.2,1.8-2.3,3.6-3,5.7c-0.2,1-0.5,2,0,3c0.6,4,2.3,6.7,6,7.2c0.5,0.3,1,0.3,1.5,0.2c0.8,0,1.6,0,2.4,0
		c0.6,0,1.3,0.1,1.9-0.2c0.5-0.1,1-0.2,1.9,0.2c-2.7,0.8-4.6,2.2-5.5,4.7C137.2,149.4,137.4,150.2,137.6,150.9z"/>
	<path class="st0" d="M271.1,181.6c0.6-3.7,2.5-5.2,5.9-6.1c3.8-1,7.3,0.1,10.7,1.8c-0.8,1.6-1.5,3-2.3,4.5c-2.2-0.8-4.2-2-6.7-1.3
		c-1,0.3-1.6,0.8-1.7,1.6s0.5,1.5,1.2,1.8c1.8,0.8,3.5,1.6,5.3,2.3s3.1,2,4.2,3.5c0.2,0.2,0.3,0.5,0.7,0.3c0,1.9,0,3.8,0,5.7
		c-1.1,0-1,1.1-1.4,1.6c-1.8,2.4-4.5,2.8-7.2,3.1c-1-0.3-1.9-0.1-2.9-0.2c-2,0-3.8-0.4-5.6-1.3c-0.9-0.4-1-0.9-0.5-1.7
		c0.6-1.2,1.2-2.4,1.9-3.7c2.2,1.5,4.6,2.2,7.1,1.9c1.1-0.1,2.2-0.7,2.4-1.7c0.2-1-0.7-1.6-1.7-2c-0.5-0.2-1-0.4-1.5-0.7
		c-1.9-0.9-3.9-1.5-5.6-2.9c-1.3-1.1-1.9-2.4-2.3-3.9C271.1,183.3,271.1,182.4,271.1,181.6z"/>
	<path class="st1" d="M288.4,221.7c-17.1,0-34.3,0-51.4,0c-0.5,0-1.2,0.4-1.6-0.3c-0.4,0.1-0.9,0.2-1.3,0.2c-0.6,0-1.5,0.4-1.6-0.6
		s0.9-0.6,1.3-0.8c-0.5,0-1,0-1.4,0c0,0.5-0.1,1-0.1,1.5c-71.2,0-142.2,0-213.3,0c0-11.6,0-23,0-34.5c0-0.2,0-0.4,0.3-0.5
		c-0.4-2.3-0.3-4.5,0-6.8c-0.7-0.5-0.3-1.1-0.3-1.7c0-21.9,0-43.9,0-65.8c-0.7,0.4-0.3,1-0.3,1.5c0,35.4,0,70.9,0,106.3
		c0,0.6,0,1.3,0,1.9c89.5,0,178.9,0,268.3,0c0.5,0,0.9,0,1.4,0C288.6,222,288.3,221.8,288.4,221.7z"/>
	<path class="st1" d="M288.4,219c-0.6-0.1-1.2-0.1-1.9-0.2c0-0.5,0-1.1,0-1.7c0.6,0,1.2-0.1,1.9-0.1
		C288.4,217.6,288.4,218.3,288.4,219z M288.2,217.9c0-0.4-0.1-0.7-0.7-0.7c-0.5,0-1,0.1-1,0.8c0,0.6,0.3,0.9,0.9,0.9
		C287.9,218.9,288.2,218.6,288.2,217.9z"/>
	<path class="st0" d="M184.3,179.5c-0.6,3.1-1.8,6-2.7,8.9c-1.1,3.4-2.2,6.7-3.3,10.1c-0.3,0.9-0.7,1.3-1.6,1.2
		c-1.9-0.1-4.2,0.6-5.6-0.3c-1.2-0.8-1.4-3.2-2-4.9c-1.5-4.5-3-9-4.3-13.6c-0.1-0.5-0.1-1.1-0.7-1.5c-0.8,6.7-1.7,13.5-2.5,20.2
		c-2.2,0-4.2,0-6.5,0c0.8-5.5,1.6-10.8,2.4-16.2c0.7-5.4,1.4-10.9,2.1-16.5c2,0,4.1,0,6.2,0c0.8,0,1,0.7,1.1,1.3
		c2.4,7.4,4.8,14.7,7.1,22.1c0.2,0.6,0.2,1.2,0.8,1.6c2.8-8.3,5.5-16.5,8.3-25c1.8,0,3.7,0,5.6,0c0.8,0,1.2,0.4,1.3,1.2
		c0.3,2.2,0.6,4.4,1,6.6c0.6,4.4,1.3,8.9,1.9,13.3c0.5,3.8,1,7.7,1.5,11.6c-2.5,0-4.9,0-7.2,0c-0.8-6.3-1.6-12.6-2.4-18.8
		c-0.1-0.7-0.2-1.4-0.2-2.2c-0.1,0-0.2,0-0.3,0C184.4,179,184.3,179.2,184.3,179.5z"/>
	<path class="st0" d="M19.2,186.6c-0.4-2.3-0.3-4.5,0-6.8c0.5-2.6,1.5-5.2,3.2-7.1c1.5-1.8,3.2-3.6,5.5-4.4c2.1-0.7,4.2-1.7,6.6-1.7
		c1.4,0,2.9,0,4.3,0c3.1,0.3,6.1,0.9,8.8,3c-1,1.7-2.1,3.5-3.2,5.3c-3-2.3-6.4-2.9-9.9-2.3c-3.9,0.6-6.5,3-7.5,6.8
		c-0.1,0.3-0.3,0.5-0.4,0.7c0,0.6-0.1,1.2-0.1,1.7c0,3.5,0.3,6.9,2.6,9.7c1.4,1.7,3.2,2.6,5.4,2.9c1.1,0.2,2.2,0.3,3.3,0
		c0.6-0.1,1.2-0.1,1.8-0.2c1.5-0.3,2.6-0.9,2.4-2.8c-0.2-1.4,0-2.8,0-4.4c-2,0-4,0-6,0c0-1.9,0-3.6,0-5.4c4.3,0,8.5,0,12.8,0
		c0,5.1,0,10,0,15c0,0.9-0.7,1.1-1.2,1.4c-2.9,1.6-6.2,2-9.4,2.3c-1.2-0.4-2.4-0.1-3.6-0.2c-7,0-13.4-4.9-14.9-11.8
		C19.5,187.7,19.4,187.1,19.2,186.6z"/>
	<path class="st0" d="M265.3,198.4c0.1,0.4,0.2,0.8,0.3,1.2c-2.2,0-4.3,0-6.5,0c-0.2-0.7-0.4-1.4-0.6-2c-4.2,4.2-9.6,3.4-13.2,0.4
		c-1.7-1.4-2.3-3.6-2.8-5.7c-0.9-4.5-0.5-8.7,1.9-12.8c2.3-3.9,8.7-5.6,12.5-3.4c0.3,0.2,0.6,0.5,1.4,0.1c0-1.8,0-3.8,0-5.8
		s0-3.9,0-6.1c2.2,0,4.3,0,6.4,0c0,0.7,0.1,1.3,0.1,2c0,8.6,0,17.2,0,25.8c0,0.7-0.2,1.3,0.2,2c0,0.9,0.1,1.8,0.1,2.7
		C265.2,197.3,265.3,197.8,265.3,198.4z M258.3,187.6c0-1.4-0.1-2.8,0-4.2c0-0.8-0.3-1.4-0.8-1.9c-2-1.7-5.5-1.3-6.9,1
		c-1.8,2.9-1.7,6.1-0.8,9.3c0.7,2.6,2.7,3.4,4.4,3.2c2.9-0.3,4.1-1.8,4.1-4.3C258.3,189.6,258.3,188.6,258.3,187.6z"/>
	<path class="st0" d="M89.6,195.1c0.9-0.3,1.9-0.7,2.8-1c0.7-0.2,1.3-0.2,1.6,0.7c0.1,0.4,0.4,0.7,0.5,1c1.2,2.4,1.2,2.7-1.4,3.5
		c-1.6,0.5-3.3,0.7-5,1.1c-1.1-0.4-2.2-0.1-3.3-0.2c-5.8-0.3-9.5-3.5-10.5-9.2c-0.5-2.9-0.4-5.7,0.7-8.5c1.4-3.4,3.6-5.6,7.2-6.8
		c3.1-1,5.9-0.6,8.6,0.6c3.9,1.7,5.1,5.3,5.6,9.2c0.1,1.2,0,2.4,0,3.8c-5.1,0-10.1,0-15.2,0c0.3,2.8,1.2,5.1,4.1,5.8
		c0.5,0.3,1,0.3,1.5,0.2c0.3,0,0.7,0,1,0C88.5,195.2,89.1,195.2,89.6,195.1z M81.2,184.5c2.7,0.7,5.5,0.2,8.3,0.2
		c0.7,0,0.4-0.7,0.2-1.1c-0.5-2.5-1.8-3.6-4.2-3.4C82.7,180.4,81.8,182.3,81.2,184.5z"/>
	<path class="st0" d="M114.4,197.7c-1.2,1.6-2.9,2.3-4.8,2.4c-1,0-2,0-3,0c-4.6,0-7-5.5-5-9.7c1.8-3.7,5.1-4.6,8.7-5.2
		c1.3-0.2,2.6-0.8,3.9-0.4c0.5-3-0.6-4.4-3.5-4.4c-1.8,0-2.8,0.4-5.9,2.2c-0.8-0.4-1.1-1.2-1.6-1.9c-0.5-0.6-1-1.2-1.5-2
		c3.4-3.2,7.4-4.3,12.1-3.5c1.4,0.2,2.7,0.5,4,1.2c2.7,1.4,3.5,4.1,3.6,6.8c0.1,3.7,0,7.3,0,11c0,1.8,0.3,3.5,0.5,5.5
		c-1.9,0-4,0-6,0c-0.8,0-0.6-0.6-0.7-1.1C114.7,198.4,115.4,197.6,114.4,197.7z M114.3,189.5c-2.4-0.3-4.2,0-5.5,0.9
		c-1,0.7-1.4,1.8-1.5,2.9c0,0.6,0.1,1.5,1.1,1.9c2.6,1.2,5.9-0.7,5.9-3.5C114.3,190.9,114.3,190.2,114.3,189.5z"/>
	<path class="st0" d="M229.9,183.2c-1.2-2.5-2.9-3.1-5.2-1.7c-0.9,0.5-1.8,1.2-2.5,2c-0.7,0.4-0.3,1.1-0.3,1.7
		c-0.1,4.8-0.1,9.7-0.1,14.5c-2.1,0-4.2,0-6.4,0c0-8,0-15.9,0-23.9c2.1,0,4.1,0,6.2,0c0.5,0.7,0,1.6,0.4,2.4c3.1-3.1,6.7-4,10.7-2.4
		c2.4,1,3.6,3.1,3.7,5.7c0,6.1,0,12.1-0.1,18.2c-2.1,0-4.2,0-6.4,0C229.9,194.2,229.9,188.7,229.9,183.2z"/>
	<path class="st0" d="M56.1,175.8c2.1,0,4.1,0,6.2,0c0.4,0.9,0.1,1.8,0.3,2.7c1.3-1.1,2.2-2.5,3.9-3.1c1.7-0.6,3.2-0.4,4.8,0.3
		c0.5,0.2,0.6,0.5,0.4,1c-0.5,1.6-0.9,3.3-1.4,5c-3.6-1.8-8.1,1.3-7.9,5.1c0.2,4.2,0.1,8.4,0.1,12.8c-2.2,0-4.3,0-6.4,0
		C56.1,191.7,56.1,183.8,56.1,175.8z"/>
	<path class="st0" d="M200.8,175.8c2.2,0,4.3,0,6.5,0c0,8,0,15.9,0,23.9c-2.1,0-4.2,0-6.4,0C200.9,191.7,200.8,183.8,200.8,175.8z"
		/>
	<path class="st2" d="M222.6,209.6c-0.5,2-1,4-1.6,6.4c-0.6-2.4-1.1-4.4-1.5-6.4c-0.8,0-1.5,0-2.3,0c-0.6,1.9-1.1,3.8-1.8,6.1
		c-0.5-2.4-0.9-4.2-1.3-6.1c0,0-2.1,0.1-2.1,0c0.7,3,1.5,6.8,2.2,9.7c0.1,0,2.2,0,2.4,0c0.6-2,1.2-4.2,1.9-6.5
		c0.7,2.4,1.2,4.5,1.8,6.5h2.4c0.6-2.4,1.3-5,1.7-7.4c0.2-1.5,0.4-2.4,0.4-2.4C224,209.6,223.2,209.6,222.6,209.6z"/>
	<path class="st0" d="M200.1,168c0.6-1.7,1.6-3.2,3.6-3c1.8,0.1,3.5,0.7,4.2,2.7c0,0.8,0,1.6,0,2.4c-0.7,1.9-1.9,2.9-3.9,3
		c-1.7,0.1-3.2-1.2-4-3.4C200.1,169.1,200.1,168.6,200.1,168z"/>
	<path class="st2" d="M266.8,211.9c-1.9-1.9-3.3-0.9-4.5,0.7c-0.3,0.8-0.3,1.7,0,2.5c0.7,2.1,1.2,2.5,3.1,2.1
		c1.1-0.2,1.9-0.8,1.6-2.1c-0.7,0.2-1.5,0.2-2.2-0.1c0-0.4,0-0.8,0-1.2c1.4,0,2.8,0,4.3,0c0,1.4,0,2.6,0,3.8c-1,0.9-2.2,1.2-3.5,1.6
		c-0.6,0-1.2,0-1.8,0c-1.8-0.5-3.2-1.4-3.5-3.4c-0.4-0.9-0.9-1.9,0-2.8c0.4-1.7,0.6-3.5,2.8-3.9c1,0,2,0,3,0c1.2,0.4,2.2,1,2.8,2.2
		c0.3,0.6-0.1,0.5-0.4,0.5C267.9,211.9,267.3,211.9,266.8,211.9z"/>
	<path class="st2" d="M252.6,211.9c3,1.6,3.7,4.4,1.6,6.4c-2.1,1.9-5.2,1.1-6-1.6c0-0.8,0-1.6,0-2.4c0.2-1.2,0.5-2.3,2.1-2.4
		C251,211.9,251.8,211.9,252.6,211.9z M253,214c-0.9-0.7-1.9-1-2.6,0.3c-0.5,0.9-0.6,1.9,0.4,2.6c0.8,0.6,1.6,0.7,2.2-0.4
		C253.4,215.7,253.2,214.8,253,214z"/>
	<path class="st2" d="M229.7,212c0.7,0.6,1.3,1,1.4,2c0,1.3,0,0.5,0,1.7c0,0.5,0,3.6,0,3.6c-0.4,0-1.1,0-1.8,0v-0.6
		c-1.2,0.6-2.5,1-3.8,0.1c-0.7-0.5-1-1.3-0.9-2c0.2-0.8,0.6-1.7,1.6-1.9c0.5-0.1,1.1-0.3,1.6-0.3c0.4,0,0.8-0.1,0.9-0.6
		c0-0.2-0.1-0.4-0.3-0.6c-0.4-0.3-0.7-0.2-1.2-0.1c-0.4,0.3-0.4,0.4-0.6,1h-1.8c-0.1-0.8,0.5-1.9,1.2-2.3c0.7-0.4,1.7-0.5,1.8-0.5
		C228.9,211.5,229.2,211.8,229.7,212z M226.8,218c1.7,0.3,2.4-0.1,2.3-2C228.1,216.4,225.9,216.1,226.8,218z"/>
	<path class="st2" d="M235.4,221.3c-0.4,0.1-0.9,0.2-1.3,0.2c-0.6,0-1.5,0.4-1.6-0.6s0.9-0.6,1.3-0.8c1.2-1.4-0.1-2.6-0.5-3.9
		c-0.4-1.4-1.2-2.6-1.5-4c0.5-0.9,1.3-0.3,2-0.4c0.5,1.4,1,2.8,1.6,4.6c0.6-1.8,1.1-3.2,1.6-4.6c0.7,0.1,1.5-0.5,2,0.4
		C238,215.3,237.2,218.5,235.4,221.3z"/>
	<path class="st2" d="M272.9,219c-1.3-0.5-2.5-1-2.4-2.6c0-1.8-0.2-3.7,2.1-4.5c0.9,0,1.8,0,2.7,0c1.8,0.6,2.8,2.1,2.6,3.8
		c-0.1,1.6-1,3-2.9,3.3C274.2,219.2,273.6,219.2,272.9,219z M272.5,216.2c0.5,0.8,1,1.4,2,1c0.9-0.3,1.1-0.9,1.1-1.8
		c0-1-0.5-1.7-1.3-2c-1.1-0.5-1.2,0.9-1.9,1.3C272.1,215.1,272.1,215.7,272.5,216.2z"/>
	<path class="st2" d="M246,211.8c0.3,0.1,0.6,0.2,0.9,0.2c0.5,0.8,0.3,1.3-0.7,1.5c0,0.1-0.1,0.2-0.2,0.2c0.2,1,0.2,2.1,0,3.1
		c0,0.2,0.1,0.3,0.1,0.5c0.2,0.4,0.6,0,0.8,0.2c0.2,0.4,0.7,0.8,0.4,1.3c-0.3,0.4-1,0.7-1.5,0.5c-0.6-0.3-1.5-0.1-1.8-1
		c-0.3-1.6,0.2-3.2-0.3-4.7c-0.1,0-0.2,0-0.4-0.1c0-0.7,0-1.3,0.1-2l0.1-0.1l0.1,0.1c0.5-0.3,0.4-0.9,0.4-1.3
		c0.6-0.2,1.1-0.9,1.8-0.6C246.3,210.3,246.2,211,246,211.8z"/>
	<path class="st1" d="M265.1,194c-0.4-0.6-0.2-1.3-0.2-2c0-8.6,0-17.2,0-25.8c0-0.7-0.1-1.3-0.1-2c0.7,0.4,0.3,1,0.3,1.5
		C265.1,175.2,265.1,184.6,265.1,194z"/>
	<path class="st0" d="M122.1,141.7c0.6-1,1.5-0.9,2.3-0.6c0.7,0.4,1.3,1.1,1.1,2c-0.2,0.7-0.6,1.2-1.4,1.2s-1.9,0.4-2-1
		C122.1,142.8,122.1,142.3,122.1,141.7z"/>
	<path class="st0" d="M145.7,138.1c0.2-0.9,0.3-1.8,1.5-1.9c1.2,0,2,0.9,2.1,1.8c0.1,1-0.8,1.8-1.8,1.8
		C146.6,139.8,145.7,139.3,145.7,138.1z"/>
	<path class="st1" d="M200.8,175.8c0,8,0,15.9,0,23.9c-0.6-0.1-0.3-0.6-0.3-1c0-7.4,0-14.7,0-22.1
		C200.5,176.4,200.4,176,200.8,175.8z"/>
	<path class="st1" d="M56.1,175.8c0,8,0,15.9,0.1,23.9c-0.6-0.2-0.3-0.7-0.3-1c0-7.3,0-14.7,0-22C55.9,176.4,55.7,176,56.1,175.8z"
		/>
	<path class="st1" d="M207.3,199.7c0-8,0-15.9,0-23.9c0.5,0.2,0.3,0.7,0.3,1c0,7.2,0,14.5,0,21.7
		C207.6,198.9,207.9,199.5,207.3,199.7z"/>
	<path class="st1" d="M215.4,175.8c0,8,0,15.9,0,23.9c-0.6-0.1-0.3-0.6-0.3-1c0-7.4,0-14.7,0-22.1
		C215.1,176.4,214.9,176,215.4,175.8z"/>
	<path class="st0" d="M153.1,155.9c0.6,0.8,1.2,1.6,0.4,2.5c-0.6,0.6-1.4,0.7-2.1,0.2c-1.2-0.9-0.5-1.8,0.2-2.7
		C152.1,155.8,152.6,155.8,153.1,155.9z"/>
	<path class="st0" d="M106.4,153.1c1,0.3,2.5-0.6,2.5,1.5c0,1.1-0.7,1.4-1.5,1.2C105.8,155.6,106.1,154.4,106.4,153.1z"/>
	<path class="st1" d="M236.3,199.7c0-6.1,0-12.1,0.1-18.2c0.4,0.1,0.3,0.4,0.3,0.7c0,5.5,0,11,0,16.5
		C236.6,199,236.9,199.5,236.3,199.7z"/>
	<path class="st0" d="M158.6,136.6c0-0.4-0.1-0.8,0-1.2c0.1-0.9,0.6-1.4,1.6-1.2c0.8,0.2,1.3,0.8,1.1,1.6c-0.2,0.9-0.8,1.3-1.7,1.1
		C159.2,136.8,158.9,136.7,158.6,136.6L158.6,136.6z"/>
	<path class="st0" d="M152.5,134.4c0.1-0.4,0.1-1.3,1.1-1.2c0.8,0.1,1.5,0.7,1.5,1.5s-0.7,1.2-1.5,1.2
		C152.8,136,152.4,135.5,152.5,134.4z"/>
	<path class="st1" d="M229.9,183.2c0,5.5,0.1,11,0.1,16.5c-0.5,0-0.4-0.5-0.4-0.8c0-5,0-10,0-15
		C229.6,183.7,229.5,183.4,229.9,183.2z"/>
	<path class="st1" d="M221.8,199.7c0-4.8,0-9.7,0.1-14.5c0-0.5-0.4-1.2,0.3-1.7c0,4.9,0,9.8-0.1,14.7
		C222.1,198.7,222.5,199.4,221.8,199.7z"/>
	<path class="st0" d="M104.5,141.1c1.2-0.3,2.1-0.1,2.2,1.1c0.1,0.6-0.4,0.9-1.1,0.8C104.1,142.9,104.6,141.9,104.5,141.1z"/>
	<path class="st0" d="M108,131.2c-0.7,0-1.2-0.2-1.2-1c0-0.7,0.3-1,1-1.1c0.7,0,1.2,0.4,1.2,0.9C109.1,130.6,108.7,131.3,108,131.2z
		"/>
	<path class="st0" d="M128.6,115.7c0-0.6,0-1.1,0-1.6c0.8-0.3,1.3-0.1,1.7,0.5c0.2,0.2,0.3,0.5,0,0.7
		C129.8,115.9,129.2,115.6,128.6,115.7z"/>
	<path class="st0" d="M154.2,161.9c0.3,0,0.7,0,1,0c0.5,0.1,0.8,0.4,0.7,0.9s-0.4,0.7-0.9,0.8c-0.6,0-0.8-0.4-0.9-0.8
		C154,162.6,154.1,162.2,154.2,161.9L154.2,161.9z"/>
	<path class="st0" d="M163.8,140c1.5,0.1,1.5,0.1,1.5,1.5C164,142,163.4,141.6,163.8,140z"/>
	<path class="st0" d="M121.1,115.7c1,0,1.5,0.4,1.5,1.2c0,0.4-0.5,0.6-0.9,0.5C120.6,117.1,121.2,116.4,121.1,115.7z"/>
	<path class="st1" d="M282.7,217c0.7,0,1.2,0,1.8,0c0,0.6,0,1.2,0,1.8c-0.6,0-1.1,0-1.7,0C282.8,218.3,282.8,217.8,282.7,217z
		 M283.6,218.9c0.6,0,0.8-0.4,0.8-0.9s-0.1-0.9-0.7-0.8c-0.6,0-1,0.1-1,0.8C282.7,218.6,283.1,218.8,283.6,218.9z"/>
	<path class="st1" d="M280.9,218.9c-0.7,0-1.1,0-1.7,0c0-0.6-0.1-1.1-0.1-1.7c0.6-0.4,1.2,0,1.7-0.2
		C281,217.6,281,218.2,280.9,218.9z M279.9,218.9c0.6,0,0.8-0.4,0.8-0.9c0-0.6-0.2-0.9-0.9-0.9c-0.5,0-1,0.2-0.9,0.9
		C279,218.6,279.4,218.8,279.9,218.9z"/>
	<path class="st1" d="M38.9,166.6c-1.4,0-2.9,0-4.3,0C36,166.3,37.4,166.3,38.9,166.6z"/>
	<path class="st1" d="M184.3,179.5c0-0.3,0.1-0.5,0.1-0.8c0.1,0,0.2,0,0.3,0c0.1,0.7,0.2,1.4,0.2,2.2
		C184.2,180.6,185.1,179.7,184.3,179.5z"/>
	<path class="st1" d="M34.5,200.2c1.2,0.2,2.4-0.2,3.6,0.2C37,200.2,35.7,200.6,34.5,200.2z"/>
	<path class="st1" d="M37.8,194.4c-1.1,0.4-2.2,0.2-3.3,0C35.5,194.4,36.7,194.4,37.8,194.4z"/>
	<path class="st1" d="M131.6,115.7c-0.1,0-0.2-0.1-0.3-0.1c0-0.6,0.1-1.2,1.1-1.9C132,114.6,131.8,115.1,131.6,115.7z"/>
	<path class="st1" d="M140.6,133.3c-0.2-1-0.4-2,0-3C140.6,131.3,140.6,132.3,140.6,133.3z"/>
	<path class="st1" d="M214.3,209.2c-0.7,0.1-1.7-0.8-2,0.7c-0.4-0.3-0.5-0.9,0.1-0.9C213,208.9,213.8,208.6,214.3,209.2z"/>
	<path class="st1" d="M277,200.1c1,0.1,2-0.1,2.9,0.2C278.9,200.2,277.9,200.6,277,200.1z"/>
	<path class="st1" d="M106.5,200.1c1,0,2,0,3,0C108.5,200.5,107.5,200.5,106.5,200.1z"/>
	<path class="st1" d="M158.2,129.7c-0.1,0.2-0.2,0.3-0.3,0.5c-0.5-0.4,0.1-1-0.2-1.5C157.8,129,158,129.3,158.2,129.7z"/>
	<path class="st1" d="M271.1,181.6c0,0.9,0,1.8,0,2.6C270.7,183.3,270.8,182.4,271.1,181.6z"/>
	<path class="st1" d="M233.9,211.8c-0.7,0.1-1.5-0.5-2,0.4c-0.3-0.1-0.4-0.6-0.1-0.6C232.5,211.7,233.3,211.3,233.9,211.8z"/>
	<path class="st1" d="M239.1,212.2c-0.5-0.9-1.3-0.3-2-0.4c0.7-0.6,1.4-0.2,2.1-0.2C239.4,211.7,239.4,212.1,239.1,212.2z"/>
	<path class="st1" d="M275.2,211.9c-0.9,0-1.8,0-2.7,0C273.4,211.5,274.3,211.4,275.2,211.9z"/>
	<path class="st1" d="M138.4,114.9c-0.3-0.4-0.7-0.2-1.1-0.3c0.7-0.6,1.3-0.4,2,0.1C139,115.2,138.7,114.9,138.4,114.9z"/>
	<path class="st1" d="M144.4,130.8c-0.2,0.1-0.4,0.2-0.7,0.3c-0.3,0-0.5,0-0.8,0C143.5,130.5,143.5,130.5,144.4,130.8z"/>
	<path class="st1" d="M248.2,214.3c0,0.8,0,1.6,0,2.4C247.7,215.8,247.7,215,248.2,214.3z"/>
	<path class="st1" d="M150.1,157.7c-0.4-0.7-0.4-1.4,0-2.1C150.1,156.3,150.1,157,150.1,157.7z"/>
	<path class="st1" d="M208,170.1c0-0.8,0-1.6,0-2.4C208.4,168.4,208.4,169.2,208,170.1z"/>
	<path class="st1" d="M252.6,211.9c-0.8,0-1.6,0-2.3,0C251,211.4,251.8,211.4,252.6,211.9z"/>
	<path class="st1" d="M142.7,116.4c-0.1-0.1-0.3-0.3-0.4-0.4c0.1-0.3,0.1-0.7,0.6-0.7C142.9,115.7,143.3,116.1,142.7,116.4z"/>
	<path class="st1" d="M224.8,209.1c-0.6,0-1.3,0-1.9,0C223.5,208.7,224.2,208.8,224.8,209.1z"/>
	<path class="st1" d="M272.9,219c0.7,0.2,1.3,0.2,2,0C274.2,219.4,273.6,219.4,272.9,219z"/>
	<path class="st1" d="M151.4,124.7c-0.4-0.6-0.3-1.2,0-1.8C151.4,123.5,151.4,124.1,151.4,124.7z"/>
	<path class="st1" d="M144.9,120.5c-0.5,0.3-1.1,0.4-1.6,0C143.8,120.5,144.4,120.5,144.9,120.5z"/>
	<path class="st1" d="M26.4,181.8c0-0.6,0.1-1.2,0.1-1.7C26.5,180.7,27,181.3,26.4,181.8z"/>
	<path class="st1" d="M162.6,143.8c-0.4-0.5-0.2-0.8,0.1-1.2C163,143.1,163,143.4,162.6,143.8z"/>
	<path class="st1" d="M157.4,149.5c-0.6,0.3-1.2,0.3-1.7,0C156.3,149.5,156.9,149.5,157.4,149.5z"/>
	<path class="st1" d="M89.6,195.1c-0.6,0.1-1.1,0.1-1.7,0.2C88.4,194.7,89.1,195.2,89.6,195.1z"/>
	<path class="st1" d="M265.3,198.4c-0.1-0.6-0.1-1.1-0.2-1.7C265.7,197.2,265.2,197.8,265.3,198.4z"/>
	<path class="st1" d="M112.7,141.4c-0.6,0.2-1.2,0.3-1.8,0.2C111.5,141,112.1,141.5,112.7,141.4z"/>
	<path class="st1" d="M263.9,219.2c0.6,0,1.2,0,1.8,0C265.1,219.2,264.5,219.2,263.9,219.2z"/>
	<path class="st1" d="M110.2,127.7c-0.1,0.4-0.2,0.8-0.3,1.2C109.6,128.4,109,127.8,110.2,127.7z"/>
	<path class="st1" d="M157.9,135.8c-0.3-0.5-0.4-1.1,0-1.6C157.9,134.8,157.9,135.3,157.9,135.8z"/>
	<path class="st1" d="M114.4,197.7c1-0.1,0.4,0.7,0.6,1C114.4,198.6,115,197.8,114.4,197.7z"/>
	<path class="st1" d="M200.1,168c0,0.6,0,1.1,0,1.7C199.7,169.1,199.7,168.6,200.1,168z"/>
	<path class="st1" d="M122.1,141.7c0,0.6,0,1.1,0,1.7C121.6,142.8,121.5,142.3,122.1,141.7z"/>
	<path class="st1" d="M86.9,195.3c-0.5,0-1,0.1-1.5-0.2C85.9,195.2,86.5,194.7,86.9,195.3z"/>
	<path class="st1" d="M153.1,155.9c-0.5,0-1.1,0-1.6,0C152.1,155.4,152.6,155.3,153.1,155.9z"/>
	<path class="st1" d="M148.5,117c-0.1-0.1-0.2-0.1-0.3-0.2c-0.1-0.3,0.1-0.5,0.4-0.6C148.7,116.5,148.9,116.8,148.5,117z"/>
	<path class="st1" d="M247,217.5c-0.2-0.2-0.6,0.2-0.8-0.2C246.5,217.4,246.7,217.4,247,217.5z"/>
	<path class="st1" d="M138.2,148.2c0,0.7,0,1.5,0,2.2C138.1,149.7,137.9,149,138.2,148.2z"/>
	<path class="st1" d="M130.1,163.4c0.6,0.1,1.2-0.4,1.7,0.2C131.3,163.5,130.7,163.4,130.1,163.4z"/>
	<path class="st1" d="M140,143.6c0.6-0.6,1.3-0.1,1.9-0.2C141.3,143.7,140.6,143.7,140,143.6z"/>
	<path class="st1" d="M136.1,143.4c0.5,0.1,1.1-0.4,1.5,0.2C137.1,143.7,136.6,143.7,136.1,143.4z"/>
	<path class="st1" d="M134.2,137.2c-0.4,0.1-0.6-0.1-0.8-0.5c0.4-0.2,0.7-0.3,0.9,0.2C134.2,137,134.2,137.1,134.2,137.2z"/>
	<path class="st2" d="M288.2,217.9c0,0.7-0.2,1-0.8,1c-0.6,0-0.9-0.4-0.9-0.9c0-0.7,0.5-0.8,1-0.8
		C288.1,217.2,288.2,217.6,288.2,217.9z"/>
	<path class="st1" d="M81.2,184.5c2.5,0,4.9,0,7.4,0c0.7,0,1.2-0.1,1.1-1c0.2,0.4,0.5,1.2-0.2,1.1C86.7,184.7,83.9,185.2,81.2,184.5
		z"/>
	<path class="st1" d="M253,216.5c0-0.8,0-1.7,0-2.5C253.2,214.8,253.4,215.7,253,216.5z"/>
	<path class="st1" d="M272.5,214.6c0,0.5,0,1,0,1.6C272.1,215.7,272.1,215.1,272.5,214.6z"/>
	<path class="st2" d="M283.6,218.9c-0.5-0.1-1-0.3-1-0.9c0-0.7,0.5-0.8,1-0.8c0.6,0,0.8,0.3,0.7,0.8
		C284.4,218.6,284.2,218.9,283.6,218.9z"/>
	<path class="st2" d="M279.9,218.9c-0.5-0.1-1-0.3-1-0.9c-0.1-0.7,0.4-0.8,0.9-0.9c0.6-0.1,0.9,0.2,0.9,0.9
		C280.7,218.6,280.5,218.9,279.9,218.9z"/>
	<path class="st0" d="M137.3,159.6c-0.4,2.1-1.4,3-3.5,3.1c-2,0.1-3.8-1.1-4.3-3c-0.4-1.3,0.8-3.7,2.2-4.5c1.2-0.7,3.4-0.3,4.6,0.9
		c0.5,0.4,0.8,1,1,1.5C137.3,158.2,137.3,158.9,137.3,159.6z"/>
	<path class="st1" d="M137.3,159.6c0-0.7,0-1.4,0-2.1C137.8,158.2,137.8,158.9,137.3,159.6z"/>
</g>
</svg>
